<?xml version="1.0" encoding="UTF-8"?>
<svg width="24px" height="24px" viewBox="0 0 24 24" version="1.1" xmlns="http://www.w3.org/2000/svg">
    <path d="M24,12.073 C24,5.446 18.627,0.073 12,0.073 C5.373,0.073 0,5.446 0,12.073 C0,18.063 4.388,23.027 10.125,23.927 L10.125,15.542 L7.077,15.542 L7.077,12.073 L10.125,12.073 L10.125,9.43 C10.125,6.423 11.917,4.761 14.657,4.761 C15.963,4.761 17.333,4.996 17.333,4.996 L17.333,7.949 L15.831,7.949 C14.35,7.949 13.875,8.874 13.875,9.823 L13.875,12.073 L17.202,12.073 L16.67,15.542 L13.875,15.542 L13.875,23.927 C19.612,23.027 24,18.063 24,12.073" fill="currentColor"/>
</svg> 